<?xml version="1.0" encoding="iso-8859-1"?>
<!-- Generator: Adobe Illustrator 19.0.0, SVG Export Plug-In . SVG Version: 6.00 Build 0)  -->
<svg fill="#96f7ae" version="1.1" id="Layer_1" xmlns="http://www.w3.org/2000/svg" xmlns:xlink="http://www.w3.org/1999/xlink" x="0px" y="0px"
	 viewBox="0 0 512 512" style="enable-background:new 0 0 512 512;" xml:space="preserve">
<g>
	<g>
		<path d="M341.764,112c0-8.287-1.234-16.287-3.5-23.845l26.894-15.528l-19.2-33.254l-26.941,15.555
			c-10.962-11.606-25.213-20.06-41.253-23.866V0h-38.4v31.062c-16.041,3.805-30.291,12.26-41.253,23.866L171.17,39.373l-19.2,33.254
			l26.894,15.528c-2.266,7.558-3.5,15.558-3.5,23.845c0,8.287,1.234,16.287,3.5,23.845l-26.894,15.528l19.2,33.254l26.941-15.555
			c10.962,11.606,25.213,20.06,41.253,23.866V224h38.4v-31.062c16.041-3.805,30.291-12.26,41.253-23.866l26.941,15.555l19.2-33.254
			l-26.894-15.528C340.531,128.287,341.764,120.287,341.764,112z M258.564,131.2c-10.604,0-19.2-8.596-19.2-19.2
			s8.596-19.2,19.2-19.2c10.604,0,19.2,8.596,19.2,19.2S269.168,131.2,258.564,131.2z"/>
	</g>
</g>
<g>
	<g>
		<path d="M264.062,368c0-14.121-2.56-27.653-7.229-40.166l26.337-15.206l-19.2-33.254l-26.382,15.232
			c-17.268-20.838-41.723-35.511-69.526-40.196V224h-38.4v30.409c-27.803,4.685-52.257,19.357-69.526,40.195l-26.382-15.231
			l-19.2,33.254l26.337,15.205c-4.669,12.513-7.229,26.045-7.229,40.166s2.56,27.653,7.229,40.166l-26.337,15.208l19.2,33.254
			l26.382-15.231c17.268,20.838,41.723,35.51,69.526,40.195V512h38.4v-30.409c27.803-4.685,52.257-19.357,69.526-40.196
			l26.382,15.232l19.2-33.254l-26.337-15.206C261.502,395.654,264.062,382.121,264.062,368z M148.862,416.092
			c-26.518,0-48.092-21.574-48.092-48.092c0-26.518,21.574-48.092,48.092-48.092s48.092,21.574,48.092,48.092
			C196.954,394.518,175.38,416.092,148.862,416.092z"/>
	</g>
</g>
<g>
	<g>
		<path d="M471.908,288c0-5.359-0.649-10.566-1.841-15.566l27.378-15.807l-19.2-33.254l-27.412,15.826
			c-7.543-7.133-16.727-12.543-26.926-15.589V192h-38.4v31.61c-10.199,3.046-19.383,8.454-26.926,15.589l-27.412-15.826
			l-19.2,33.254l27.378,15.807c-1.19,5-1.839,10.207-1.839,15.566s0.649,10.566,1.839,15.566l-27.378,15.807l19.2,33.254
			l27.412-15.826c7.543,7.133,16.727,12.543,26.926,15.589V384h38.4v-31.61c10.199-3.046,19.383-8.454,26.926-15.589l27.412,15.826
			l19.2-33.254l-27.378-15.807C471.259,298.566,471.908,293.359,471.908,288z M404.708,307.2c-10.604,0-19.2-8.596-19.2-19.2
			s8.596-19.2,19.2-19.2s19.2,8.596,19.2,19.2S415.312,307.2,404.708,307.2z"/>
	</g>
</g>
<g>
</g>
<g>
</g>
<g>
</g>
<g>
</g>
<g>
</g>
<g>
</g>
<g>
</g>
<g>
</g>
<g>
</g>
<g>
</g>
<g>
</g>
<g>
</g>
<g>
</g>
<g>
</g>
<g>
</g>
</svg>
